ffmpeg started on 2026-01-19 at 15:00:48
Report written to "D:\Convert\FFMetrics\reports\psnr_report-6.txt"
Log level: 32
Command line:
ffmpeg -hide_banner -nostdin -r 24000/1001 -i "F:\\Convert\\files\\[DC] Make Heroine ga Oosugiru - 07_Telegram_HEVC(187).mkv" -r 24000/1001 -i "F:\\Convert\\files\\[DC] Make Heroine ga Oosugiru - 07_Telegram.mp4" -lavfi "[0:v]settb=AVTB,setpts=PTS-STARTPTS,format=pix_fmts=yuv420p10le,fps=24000/1001,scale=1920:1080:flags=lanczos:param0=3:out_range=limited:out_color_matrix=bt709:out_chroma_loc=left,setsar=1/1,setdar=(1920/1080)*(1/1),colorspace=format=yuv420p10:range=tv:primaries=bt709:trc=bt709:space=bt709:fast=0[main];[1:v]settb=AVTB,setpts=PTS-STARTPTS,format=pix_fmts=yuv420p,fps=24000/1001,scale=1920:1080:flags=lanczos:param0=3:out_range=limited:out_color_matrix=bt709:out_chroma_loc=left,setsar=1.000,setdar=1.778,colorspace=format=yuv420p:range=tv:primaries=bt709:trc=bt709:space=bt709:fast=0[ref];[main][ref]psnr=eof_action=endall:stats_file='D\\:/Convert/FFMetrics/logs/psnr_logfile-6.txt'" -f null -
Input #0, matroska,webm, from 'F:\Convert\files\[DC] Make Heroine ga Oosugiru - 07_Telegram_HEVC(187).mkv':
  Metadata:
    COMPATIBLE_BRANDS: isomiso2avc1mp41
    MAJOR_BRAND     : isom
    MINOR_VERSION   : 512
    ENCODER         : Lavf61.7.100
  Duration: 00:24:06.79, start: -0.021000, bitrate: 971 kb/s
  Stream #0:0: Video: hevc (Main 10), yuv420p10le(tv, bt709, progressive), 1920x1080 [SAR 1:1 DAR 16:9], 23.98 fps, 23.98 tbr, 1k tbn (default)
      Metadata:
        HANDLER_NAME    : VideoHandler
        VENDOR_ID       : [0][0][0][0]
        ENCODER         : Lavc61.19.100 libx265
        BPS             : 774123
        DURATION        : 00:24:06.569708333
        NUMBER_OF_FRAMES: 34683
        NUMBER_OF_BYTES : 139977894
        _STATISTICS_WRITING_APP: mkvpropedit v94.0 ('Initiate') 64-bit
        _STATISTICS_WRITING_DATE_UTC: 2026-01-19 11:00:34
        _STATISTICS_TAGS: BPS DURATION NUMBER_OF_FRAMES NUMBER_OF_BYTES
  Stream #0:1: Audio: aac (LC), 48000 Hz, stereo, fltp (default)
      Metadata:
        HANDLER_NAME    : SoundHandler
        VENDOR_ID       : [0][0][0][0]
        ENCODER         : Lavc61.19.100 aac
        BPS             : 193194
        DURATION        : 00:24:06.784000000
        NUMBER_OF_FRAMES: 67819
        NUMBER_OF_BYTES : 34938755
        _STATISTICS_WRITING_APP: mkvpropedit v94.0 ('Initiate') 64-bit
        _STATISTICS_WRITING_DATE_UTC: 2026-01-19 11:00:34
        _STATISTICS_TAGS: BPS DURATION NUMBER_OF_FRAMES NUMBER_OF_BYTES
Input #1, mov,mp4,m4a,3gp,3g2,mj2, from 'F:\Convert\files\[DC] Make Heroine ga Oosugiru - 07_Telegram.mp4':
  Metadata:
    major_brand     : isom
    minor_version   : 512
    compatible_brands: isomiso2avc1mp41
    encoder         : Lavf60.16.100
  Duration: 00:24:06.74, start: 0.000000, bitrate: 3764 kb/s
  Stream #1:0[0x1](und): Video: h264 (High) (avc1 / 0x31637661), yuv420p(tv, bt709, progressive), 1920x1080 [SAR 1:1 DAR 16:9], 3616 kb/s, 23.98 fps, 23.98 tbr, 24k tbn (default)
      Metadata:
        handler_name    : VideoHandler
        vendor_id       : [0][0][0][0]
        encoder         : Lavc60.31.102 h264_qsv
  Stream #1:1[0x2](und): Audio: aac (HE-AACv2) (mp4a / 0x6134706D), 48000 Hz, stereo, fltp, 144 kb/s (default)
      Metadata:
        handler_name    : SoundHandler
        vendor_id       : [0][0][0][0]
Stream mapping:
  Stream #0:0 (hevc) -> settb:default
  Stream #1:0 (h264) -> settb:default
  psnr:default -> Stream #0:0 (wrapped_avframe)
  Stream #0:1 -> #0:1 (aac (native) -> pcm_s16le (native))
Output #0, null, to 'pipe:':
  Metadata:
    COMPATIBLE_BRANDS: isomiso2avc1mp41
    MAJOR_BRAND     : isom
    MINOR_VERSION   : 512
    encoder         : Lavf61.7.100
  Stream #0:0: Video: wrapped_avframe, yuv420p10le(tv, bt709, progressive), 1920x1080 [SAR 1:1 DAR 16:9], q=2-31, 200 kb/s, 23.98 fps, 23.98 tbn
      Metadata:
        encoder         : Lavc61.19.100 wrapped_avframe
  Stream #0:1: Audio: pcm_s16le, 48000 Hz, stereo, s16, 1536 kb/s (default)
      Metadata:
        HANDLER_NAME    : SoundHandler
        VENDOR_ID       : [0][0][0][0]
        _STATISTICS_TAGS: BPS DURATION NUMBER_OF_FRAMES NUMBER_OF_BYTES
        BPS             : 193194
        DURATION        : 00:24:06.784000000
        NUMBER_OF_FRAMES: 67819
        NUMBER_OF_BYTES : 34938755
        _STATISTICS_WRITING_APP: mkvpropedit v94.0 ('Initiate') 64-bit
        _STATISTICS_WRITING_DATE_UTC: 2026-01-19 11:00:34
        encoder         : Lavc61.19.100 pcm_s16le
frame=  130 fps=0.0 q=-0.0 size=N/A time=00:00:05.42 bitrate=N/A speed=10.5x    frame=  318 fps=310 q=-0.0 size=N/A time=00:00:13.26 bitrate=N/A speed=12.9x    frame=  523 fps=340 q=-0.0 size=N/A time=00:00:21.81 bitrate=N/A speed=14.2x    frame=  732 fps=355 q=-0.0 size=N/A time=00:00:30.53 bitrate=N/A speed=14.8x    frame=  912 fps=354 q=-0.0 size=N/A time=00:00:38.03 bitrate=N/A speed=14.8x    frame= 1060 fps=344 q=-0.0 size=N/A time=00:00:44.21 bitrate=N/A speed=14.3x    frame= 1216 fps=336 q=-0.0 size=N/A time=00:00:50.71 bitrate=N/A speed=  14x    frame= 1380 fps=335 q=-0.0 size=N/A time=00:00:57.55 bitrate=N/A speed=  14x    frame= 1535 fps=331 q=-0.0 size=N/A time=00:01:04.02 bitrate=N/A speed=13.8x    frame= 1680 fps=326 q=-0.0 size=N/A time=00:01:10.07 bitrate=N/A speed=13.6x    frame= 1854 fps=327 q=-0.0 size=N/A time=00:01:17.32 bitrate=N/A speed=13.6x    frame= 2027 fps=328 q=-0.0 size=N/A time=00:01:24.54 bitrate=N/A speed=13.7x    frame= 2131 fps=318 q=-0.0 size=N/A time=00:01:28.88 bitrate=N/A speed=13.2x    frame= 2288 fps=316 q=-0.0 size=N/A time=00:01:35.42 bitrate=N/A speed=13.2x    frame= 2434 fps=314 q=-0.0 size=N/A time=00:01:41.51 bitrate=N/A speed=13.1x    frame= 2574 fps=311 q=-0.0 size=N/A time=00:01:47.35 bitrate=N/A speed=  13x    frame= 2746 fps=313 q=-0.0 size=N/A time=00:01:54.53 bitrate=N/A speed=  13x    frame= 2919 fps=314 q=-0.0 size=N/A time=00:02:01.74 bitrate=N/A speed=13.1x    frame= 3113 fps=318 q=-0.0 size=N/A time=00:02:09.83 bitrate=N/A speed=13.2x    frame= 3321 fps=322 q=-0.0 size=N/A time=00:02:18.51 bitrate=N/A speed=13.4x    frame= 3521 fps=325 q=-0.0 size=N/A time=00:02:26.85 bitrate=N/A speed=13.5x    frame= 3723 fps=328 q=-0.0 size=N/A time=00:02:35.28 bitrate=N/A speed=13.7x    frame= 3931 fps=331 q=-0.0 size=N/A time=00:02:43.95 bitrate=N/A speed=13.8x    frame= 4139 fps=334 q=-0.0 size=N/A time=00:02:52.63 bitrate=N/A speed=13.9x    frame= 4339 fps=336 q=-0.0 size=N/A time=00:03:00.97 bitrate=N/A speed=  14x    frame= 4542 fps=338 q=-0.0 size=N/A time=00:03:09.43 bitrate=N/A speed=14.1x    frame= 4742 fps=340 q=-0.0 size=N/A time=00:03:17.78 bitrate=N/A speed=14.2x    frame= 4943 fps=342 q=-0.0 size=N/A time=00:03:26.16 bitrate=N/A speed=14.3x    frame= 5147 fps=344 q=-0.0 size=N/A time=00:03:34.67 bitrate=N/A speed=14.3x    frame= 5339 fps=345 q=-0.0 size=N/A time=00:03:42.68 bitrate=N/A speed=14.4x    frame= 5539 fps=346 q=-0.0 size=N/A time=00:03:51.02 bitrate=N/A speed=14.4x    frame= 5746 fps=348 q=-0.0 size=N/A time=00:03:59.65 bitrate=N/A speed=14.5x    frame= 5944 fps=349 q=-0.0 size=N/A time=00:04:07.91 bitrate=N/A speed=14.6x    frame= 6142 fps=350 q=-0.0 size=N/A time=00:04:16.17 bitrate=N/A speed=14.6x    frame= 6330 fps=350 q=-0.0 size=N/A time=00:04:24.01 bitrate=N/A speed=14.6x    frame= 6531 fps=352 q=-0.0 size=N/A time=00:04:32.39 bitrate=N/A speed=14.7x    frame= 6735 fps=353 q=-0.0 size=N/A time=00:04:40.90 bitrate=N/A speed=14.7x    frame= 6936 fps=354 q=-0.0 size=N/A time=00:04:49.28 bitrate=N/A speed=14.8x    frame= 7125 fps=354 q=-0.0 size=N/A time=00:04:57.17 bitrate=N/A speed=14.8x    frame= 7330 fps=355 q=-0.0 size=N/A time=00:05:05.72 bitrate=N/A speed=14.8x    frame= 7518 fps=355 q=-0.0 size=N/A time=00:05:13.56 bitrate=N/A speed=14.8x    frame= 7698 fps=355 q=-0.0 size=N/A time=00:05:21.07 bitrate=N/A speed=14.8x    frame= 7906 fps=356 q=-0.0 size=N/A time=00:05:29.74 bitrate=N/A speed=14.9x    frame= 8099 fps=357 q=-0.0 size=N/A time=00:05:37.79 bitrate=N/A speed=14.9x    frame= 8292 fps=357 q=-0.0 size=N/A time=00:05:45.84 bitrate=N/A speed=14.9x    frame= 8495 fps=358 q=-0.0 size=N/A time=00:05:54.31 bitrate=N/A speed=14.9x    frame= 8697 fps=359 q=-0.0 size=N/A time=00:06:02.73 bitrate=N/A speed=  15x    frame= 8887 fps=359 q=-0.0 size=N/A time=00:06:10.66 bitrate=N/A speed=  15x    frame= 9090 fps=359 q=-0.0 size=N/A time=00:06:19.12 bitrate=N/A speed=  15x    frame= 9291 fps=360 q=-0.0 size=N/A time=00:06:27.51 bitrate=N/A speed=  15x    frame= 9489 fps=361 q=-0.0 size=N/A time=00:06:35.77 bitrate=N/A speed=  15x    frame= 9688 fps=361 q=-0.0 size=N/A time=00:06:44.07 bitrate=N/A speed=15.1x    frame= 9885 fps=362 q=-0.0 size=N/A time=00:06:52.28 bitrate=N/A speed=15.1x    frame=10081 fps=362 q=-0.0 size=N/A time=00:07:00.46 bitrate=N/A speed=15.1x    frame=10279 fps=362 q=-0.0 size=N/A time=00:07:08.71 bitrate=N/A speed=15.1x    frame=10479 fps=363 q=-0.0 size=N/A time=00:07:17.06 bitrate=N/A speed=15.1x    frame=10670 fps=363 q=-0.0 size=N/A time=00:07:25.02 bitrate=N/A speed=15.1x    frame=10872 fps=363 q=-0.0 size=N/A time=00:07:33.45 bitrate=N/A speed=15.2x    frame=11064 fps=364 q=-0.0 size=N/A time=00:07:41.46 bitrate=N/A speed=15.2x    frame=11253 fps=364 q=-0.0 size=N/A time=00:07:49.34 bitrate=N/A speed=15.2x    frame=11452 fps=364 q=-0.0 size=N/A time=00:07:57.64 bitrate=N/A speed=15.2x    frame=11652 fps=364 q=-0.0 size=N/A time=00:08:05.98 bitrate=N/A speed=15.2x    frame=11849 fps=365 q=-0.0 size=N/A time=00:08:14.20 bitrate=N/A speed=15.2x    frame=12054 fps=365 q=-0.0 size=N/A time=00:08:22.75 bitrate=N/A speed=15.2x    frame=12253 fps=365 q=-0.0 size=N/A time=00:08:31.05 bitrate=N/A speed=15.2x    frame=12447 fps=366 q=-0.0 size=N/A time=00:08:39.14 bitrate=N/A speed=15.3x    frame=12645 fps=366 q=-0.0 size=N/A time=00:08:47.40 bitrate=N/A speed=15.3x    frame=12846 fps=366 q=-0.0 size=N/A time=00:08:55.78 bitrate=N/A speed=15.3x    frame=13044 fps=367 q=-0.0 size=N/A time=00:09:04.04 bitrate=N/A speed=15.3x    frame=13240 fps=367 q=-0.0 size=N/A time=00:09:12.21 bitrate=N/A speed=15.3x    frame=13430 fps=367 q=-0.0 size=N/A time=00:09:20.14 bitrate=N/A speed=15.3x    frame=13634 fps=367 q=-0.0 size=N/A time=00:09:28.65 bitrate=N/A speed=15.3x    frame=13828 fps=367 q=-0.0 size=N/A time=00:09:36.74 bitrate=N/A speed=15.3x    frame=14019 fps=367 q=-0.0 size=N/A time=00:09:44.70 bitrate=N/A speed=15.3x    frame=14202 fps=367 q=-0.0 size=N/A time=00:09:52.34 bitrate=N/A speed=15.3x    frame=14401 fps=367 q=-0.0 size=N/A time=00:10:00.64 bitrate=N/A speed=15.3x    frame=14601 fps=368 q=-0.0 size=N/A time=00:10:08.98 bitrate=N/A speed=15.3x    frame=14797 fps=368 q=-0.0 size=N/A time=00:10:17.15 bitrate=N/A speed=15.3x    frame=14991 fps=368 q=-0.0 size=N/A time=00:10:25.24 bitrate=N/A speed=15.3x    frame=15159 fps=367 q=-0.0 size=N/A time=00:10:32.25 bitrate=N/A speed=15.3x    frame=15351 fps=367 q=-0.0 size=N/A time=00:10:40.26 bitrate=N/A speed=15.3x    frame=15543 fps=367 q=-0.0 size=N/A time=00:10:48.27 bitrate=N/A speed=15.3x    frame=15735 fps=367 q=-0.0 size=N/A time=00:10:56.28 bitrate=N/A speed=15.3x    frame=15929 fps=368 q=-0.0 size=N/A time=00:11:04.37 bitrate=N/A speed=15.3x    frame=16137 fps=368 q=-0.0 size=N/A time=00:11:13.04 bitrate=N/A speed=15.3x    frame=16336 fps=368 q=-0.0 size=N/A time=00:11:21.34 bitrate=N/A speed=15.4x    frame=16525 fps=368 q=-0.0 size=N/A time=00:11:29.23 bitrate=N/A speed=15.4x    frame=16731 fps=368 q=-0.0 size=N/A time=00:11:37.82 bitrate=N/A speed=15.4x    frame=16931 fps=369 q=-0.0 size=N/A time=00:11:46.16 bitrate=N/A speed=15.4x    frame=17132 fps=369 q=-0.0 size=N/A time=00:11:54.54 bitrate=N/A speed=15.4x    frame=17337 fps=369 q=-0.0 size=N/A time=00:12:03.09 bitrate=N/A speed=15.4x    frame=17530 fps=369 q=-0.0 size=N/A time=00:12:11.14 bitrate=N/A speed=15.4x    frame=17726 fps=369 q=-0.0 size=N/A time=00:12:19.32 bitrate=N/A speed=15.4x    frame=17927 fps=370 q=-0.0 size=N/A time=00:12:27.70 bitrate=N/A speed=15.4x    frame=18133 fps=370 q=-0.0 size=N/A time=00:12:36.29 bitrate=N/A speed=15.4x    frame=18317 fps=370 q=-0.0 size=N/A time=00:12:43.97 bitrate=N/A speed=15.4x    frame=18512 fps=370 q=-0.0 size=N/A time=00:12:52.10 bitrate=N/A speed=15.4x    frame=18720 fps=370 q=-0.0 size=N/A time=00:13:00.78 bitrate=N/A speed=15.4x    frame=18916 fps=370 q=-0.0 size=N/A time=00:13:08.95 bitrate=N/A speed=15.4x    frame=19112 fps=370 q=-0.0 size=N/A time=00:13:17.12 bitrate=N/A speed=15.4x    frame=19320 fps=371 q=-0.0 size=N/A time=00:13:25.80 bitrate=N/A speed=15.5x    frame=19523 fps=371 q=-0.0 size=N/A time=00:13:34.27 bitrate=N/A speed=15.5x    frame=19721 fps=371 q=-0.0 size=N/A time=00:13:42.53 bitrate=N/A speed=15.5x    frame=19927 fps=371 q=-0.0 size=N/A time=00:13:51.12 bitrate=N/A speed=15.5x    frame=20132 fps=372 q=-0.0 size=N/A time=00:13:59.67 bitrate=N/A speed=15.5x    frame=20337 fps=372 q=-0.0 size=N/A time=00:14:08.22 bitrate=N/A speed=15.5x    frame=20524 fps=372 q=-0.0 size=N/A time=00:14:16.02 bitrate=N/A speed=15.5x    frame=20704 fps=372 q=-0.0 size=N/A time=00:14:23.52 bitrate=N/A speed=15.5x    frame=20915 fps=372 q=-0.0 size=N/A time=00:14:32.32 bitrate=N/A speed=15.5x    frame=21114 fps=372 q=-0.0 size=N/A time=00:14:40.62 bitrate=N/A speed=15.5x    frame=21298 fps=372 q=-0.0 size=N/A time=00:14:48.30 bitrate=N/A speed=15.5x    frame=21509 fps=372 q=-0.0 size=N/A time=00:14:57.10 bitrate=N/A speed=15.5x    frame=21711 fps=372 q=-0.0 size=N/A time=00:15:05.52 bitrate=N/A speed=15.5x    frame=21914 fps=373 q=-0.0 size=N/A time=00:15:13.99 bitrate=N/A speed=15.5x    frame=22118 fps=373 q=-0.0 size=N/A time=00:15:22.50 bitrate=N/A speed=15.5x    frame=22319 fps=373 q=-0.0 size=N/A time=00:15:30.88 bitrate=N/A speed=15.6x    frame=22523 fps=373 q=-0.0 size=N/A time=00:15:39.39 bitrate=N/A speed=15.6x    frame=22722 fps=373 q=-0.0 size=N/A time=00:15:47.69 bitrate=N/A speed=15.6x    frame=22914 fps=373 q=-0.0 size=N/A time=00:15:55.70 bitrate=N/A speed=15.6x    frame=23117 fps=373 q=-0.0 size=N/A time=00:16:04.17 bitrate=N/A speed=15.6x    frame=23311 fps=373 q=-0.0 size=N/A time=00:16:12.26 bitrate=N/A speed=15.6x    frame=23512 fps=373 q=-0.0 size=N/A time=00:16:20.64 bitrate=N/A speed=15.6x    frame=23723 fps=374 q=-0.0 size=N/A time=00:16:29.44 bitrate=N/A speed=15.6x    frame=23921 fps=374 q=-0.0 size=N/A time=00:16:37.70 bitrate=N/A speed=15.6x    frame=24124 fps=374 q=-0.0 size=N/A time=00:16:46.17 bitrate=N/A speed=15.6x    frame=24323 fps=374 q=-0.0 size=N/A time=00:16:54.47 bitrate=N/A speed=15.6x    frame=24519 fps=374 q=-0.0 size=N/A time=00:17:02.64 bitrate=N/A speed=15.6x    frame=24729 fps=374 q=-0.0 size=N/A time=00:17:11.40 bitrate=N/A speed=15.6x    frame=24927 fps=375 q=-0.0 size=N/A time=00:17:19.66 bitrate=N/A speed=15.6x    frame=25141 fps=375 q=-0.0 size=N/A time=00:17:28.58 bitrate=N/A speed=15.6x    frame=25342 fps=375 q=-0.0 size=N/A time=00:17:36.97 bitrate=N/A speed=15.6x    frame=25542 fps=375 q=-0.0 size=N/A time=00:17:45.31 bitrate=N/A speed=15.6x    frame=25744 fps=375 q=-0.0 size=N/A time=00:17:53.73 bitrate=N/A speed=15.6x    frame=25942 fps=375 q=-0.0 size=N/A time=00:18:01.99 bitrate=N/A speed=15.7x    frame=26137 fps=375 q=-0.0 size=N/A time=00:18:10.13 bitrate=N/A speed=15.7x    frame=26341 fps=375 q=-0.0 size=N/A time=00:18:18.63 bitrate=N/A speed=15.7x    frame=26533 fps=375 q=-0.0 size=N/A time=00:18:26.64 bitrate=N/A speed=15.7x    frame=26725 fps=375 q=-0.0 size=N/A time=00:18:34.65 bitrate=N/A speed=15.7x    frame=26915 fps=375 q=-0.0 size=N/A time=00:18:42.57 bitrate=N/A speed=15.7x    frame=27095 fps=375 q=-0.0 size=N/A time=00:18:50.08 bitrate=N/A speed=15.6x    frame=27280 fps=375 q=-0.0 size=N/A time=00:18:57.80 bitrate=N/A speed=15.6x    frame=27472 fps=375 q=-0.0 size=N/A time=00:19:05.81 bitrate=N/A speed=15.6x    frame=27672 fps=375 q=-0.0 size=N/A time=00:19:14.15 bitrate=N/A speed=15.6x    frame=27868 fps=375 q=-0.0 size=N/A time=00:19:22.32 bitrate=N/A speed=15.6x    frame=28055 fps=375 q=-0.0 size=N/A time=00:19:30.12 bitrate=N/A speed=15.6x    frame=28249 fps=375 q=-0.0 size=N/A time=00:19:38.21 bitrate=N/A speed=15.6x    frame=28449 fps=375 q=-0.0 size=N/A time=00:19:46.56 bitrate=N/A speed=15.6x    frame=28650 fps=375 q=-0.0 size=N/A time=00:19:54.94 bitrate=N/A speed=15.6x    frame=28825 fps=375 q=-0.0 size=N/A time=00:20:02.24 bitrate=N/A speed=15.6x    frame=29007 fps=375 q=-0.0 size=N/A time=00:20:09.83 bitrate=N/A speed=15.6x    frame=29181 fps=375 q=-0.0 size=N/A time=00:20:17.09 bitrate=N/A speed=15.6x    frame=29368 fps=375 q=-0.0 size=N/A time=00:20:24.89 bitrate=N/A speed=15.6x    frame=29546 fps=374 q=-0.0 size=N/A time=00:20:32.31 bitrate=N/A speed=15.6x    frame=29724 fps=374 q=-0.0 size=N/A time=00:20:39.73 bitrate=N/A speed=15.6x    frame=29902 fps=374 q=-0.0 size=N/A time=00:20:47.16 bitrate=N/A speed=15.6x    frame=30066 fps=374 q=-0.0 size=N/A time=00:20:54.00 bitrate=N/A speed=15.6x    frame=30256 fps=374 q=-0.0 size=N/A time=00:21:01.92 bitrate=N/A speed=15.6x    frame=30456 fps=374 q=-0.0 size=N/A time=00:21:10.26 bitrate=N/A speed=15.6x    frame=30648 fps=374 q=-0.0 size=N/A time=00:21:18.27 bitrate=N/A speed=15.6x    frame=30857 fps=374 q=-0.0 size=N/A time=00:21:26.99 bitrate=N/A speed=15.6x    frame=31047 fps=374 q=-0.0 size=N/A time=00:21:34.91 bitrate=N/A speed=15.6x    frame=31250 fps=374 q=-0.0 size=N/A time=00:21:43.38 bitrate=N/A speed=15.6x    frame=31435 fps=374 q=-0.0 size=N/A time=00:21:51.10 bitrate=N/A speed=15.6x    frame=31633 fps=374 q=-0.0 size=N/A time=00:21:59.35 bitrate=N/A speed=15.6x    frame=31818 fps=374 q=-0.0 size=N/A time=00:22:07.07 bitrate=N/A speed=15.6x    frame=32000 fps=374 q=-0.0 size=N/A time=00:22:14.66 bitrate=N/A speed=15.6x    frame=32192 fps=374 q=-0.0 size=N/A time=00:22:22.67 bitrate=N/A speed=15.6x    frame=32390 fps=374 q=-0.0 size=N/A time=00:22:30.93 bitrate=N/A speed=15.6x    frame=32584 fps=374 q=-0.0 size=N/A time=00:22:39.02 bitrate=N/A speed=15.6x    frame=32736 fps=373 q=-0.0 size=N/A time=00:22:45.36 bitrate=N/A speed=15.6x    frame=32899 fps=373 q=-0.0 size=N/A time=00:22:52.16 bitrate=N/A speed=15.6x    frame=33071 fps=373 q=-0.0 size=N/A time=00:22:59.33 bitrate=N/A speed=15.5x    frame=33252 fps=373 q=-0.0 size=N/A time=00:23:06.88 bitrate=N/A speed=15.5x    frame=33419 fps=372 q=-0.0 size=N/A time=00:23:13.85 bitrate=N/A speed=15.5x    frame=33573 fps=372 q=-0.0 size=N/A time=00:23:20.27 bitrate=N/A speed=15.5x    frame=33728 fps=371 q=-0.0 size=N/A time=00:23:26.73 bitrate=N/A speed=15.5x    frame=33857 fps=371 q=-0.0 size=N/A time=00:23:32.11 bitrate=N/A speed=15.5x    frame=34009 fps=370 q=-0.0 size=N/A time=00:23:38.45 bitrate=N/A speed=15.4x    frame=34171 fps=370 q=-0.0 size=N/A time=00:23:45.21 bitrate=N/A speed=15.4x    frame=34318 fps=370 q=-0.0 size=N/A time=00:23:51.34 bitrate=N/A speed=15.4x    frame=34452 fps=369 q=-0.0 size=N/A time=00:23:56.93 bitrate=N/A speed=15.4x    frame=34628 fps=369 q=-0.0 size=N/A time=00:24:04.27 bitrate=N/A speed=15.4x    [Parsed_psnr_16 @ 000001d874427100] PSNR y:48.991455 u:50.344675 v:50.391958 average:49.403720 min:37.993394 max:inf
[out#0/null @ 000001d866edfe80] video:14903KiB audio:271276KiB subtitle:0KiB other streams:0KiB global headers:0KiB muxing overhead: unknown
frame=34683 fps=369 q=-0.0 Lsize=N/A time=00:24:06.57 bitrate=N/A speed=15.4x    
